<mxfile host="app.diagrams.net" modified="2023-12-21T01:23:48.287Z" agent="Mozilla/5.0 (Windows NT 10.0; Win64; x64) AppleWebKit/537.36 (KHTML, like Gecko) Chrome/120.0.0.0 Safari/537.36" etag="Seeo23fefylX7rkgK3NQ" version="22.1.11" type="device">
  <diagram name="Side-1" id="FqVeTr-tsVZ-Dn4XAbSK">
    <mxGraphModel dx="1434" dy="738" grid="0" gridSize="10" guides="1" tooltips="1" connect="1" arrows="1" fold="1" page="1" pageScale="1" pageWidth="827" pageHeight="1169" background="#ffffff" math="0" shadow="0">
      <root>
        <mxCell id="0" />
        <mxCell id="1" parent="0" />
        <mxCell id="ghTpwiykco7RXsNXicl3-4" value="" style="edgeStyle=orthogonalEdgeStyle;rounded=0;orthogonalLoop=1;jettySize=auto;html=1;" parent="1" source="ghTpwiykco7RXsNXicl3-1" target="ghTpwiykco7RXsNXicl3-3" edge="1">
          <mxGeometry relative="1" as="geometry" />
        </mxCell>
        <mxCell id="ghTpwiykco7RXsNXicl3-1" value="" style="ellipse;whiteSpace=wrap;html=1;aspect=fixed;" parent="1" vertex="1">
          <mxGeometry x="119" y="150" width="40" height="40" as="geometry" />
        </mxCell>
        <mxCell id="ghTpwiykco7RXsNXicl3-2" value="Start" style="text;html=1;strokeColor=none;fillColor=none;align=center;verticalAlign=middle;whiteSpace=wrap;rounded=0;" parent="1" vertex="1">
          <mxGeometry x="109" y="120" width="60" height="30" as="geometry" />
        </mxCell>
        <mxCell id="ghTpwiykco7RXsNXicl3-6" value="" style="edgeStyle=orthogonalEdgeStyle;rounded=0;orthogonalLoop=1;jettySize=auto;html=1;" parent="1" source="ghTpwiykco7RXsNXicl3-3" target="ghTpwiykco7RXsNXicl3-5" edge="1">
          <mxGeometry relative="1" as="geometry" />
        </mxCell>
        <mxCell id="ghTpwiykco7RXsNXicl3-3" value="Open Website" style="whiteSpace=wrap;html=1;" parent="1" vertex="1">
          <mxGeometry x="199" y="140" width="120" height="60" as="geometry" />
        </mxCell>
        <mxCell id="ghTpwiykco7RXsNXicl3-8" value="" style="edgeStyle=orthogonalEdgeStyle;rounded=0;orthogonalLoop=1;jettySize=auto;html=1;" parent="1" source="ghTpwiykco7RXsNXicl3-5" target="ghTpwiykco7RXsNXicl3-7" edge="1">
          <mxGeometry relative="1" as="geometry" />
        </mxCell>
        <mxCell id="ghTpwiykco7RXsNXicl3-5" value="View public timeline" style="whiteSpace=wrap;html=1;" parent="1" vertex="1">
          <mxGeometry x="359" y="140" width="120" height="60" as="geometry" />
        </mxCell>
        <mxCell id="ghTpwiykco7RXsNXicl3-10" value="" style="edgeStyle=orthogonalEdgeStyle;rounded=0;orthogonalLoop=1;jettySize=auto;html=1;" parent="1" source="ghTpwiykco7RXsNXicl3-7" target="ghTpwiykco7RXsNXicl3-9" edge="1">
          <mxGeometry relative="1" as="geometry" />
        </mxCell>
        <mxCell id="ghTpwiykco7RXsNXicl3-7" value="Use buttons to scroll through pages" style="whiteSpace=wrap;html=1;" parent="1" vertex="1">
          <mxGeometry x="519" y="140" width="120" height="60" as="geometry" />
        </mxCell>
        <mxCell id="ghTpwiykco7RXsNXicl3-9" value="" style="ellipse;whiteSpace=wrap;html=1;" parent="1" vertex="1">
          <mxGeometry x="679" y="150" width="40" height="40" as="geometry" />
        </mxCell>
        <mxCell id="ghTpwiykco7RXsNXicl3-11" value="End" style="text;html=1;align=center;verticalAlign=middle;resizable=0;points=[];autosize=1;strokeColor=none;fillColor=none;" parent="1" vertex="1">
          <mxGeometry x="679" y="120" width="40" height="30" as="geometry" />
        </mxCell>
        <mxCell id="ghTpwiykco7RXsNXicl3-12" value="" style="ellipse;whiteSpace=wrap;html=1;aspect=fixed;" parent="1" vertex="1">
          <mxGeometry x="129" y="160" width="20" height="20" as="geometry" />
        </mxCell>
        <mxCell id="ghTpwiykco7RXsNXicl3-13" value="" style="ellipse;whiteSpace=wrap;html=1;aspect=fixed;" parent="1" vertex="1">
          <mxGeometry x="689" y="160" width="20" height="20" as="geometry" />
        </mxCell>
        <mxCell id="ghTpwiykco7RXsNXicl3-14" value="" style="edgeStyle=orthogonalEdgeStyle;rounded=0;orthogonalLoop=1;jettySize=auto;html=1;" parent="1" source="ghTpwiykco7RXsNXicl3-15" target="ghTpwiykco7RXsNXicl3-18" edge="1">
          <mxGeometry relative="1" as="geometry" />
        </mxCell>
        <mxCell id="ghTpwiykco7RXsNXicl3-15" value="" style="ellipse;whiteSpace=wrap;html=1;aspect=fixed;" parent="1" vertex="1">
          <mxGeometry x="119" y="250" width="40" height="40" as="geometry" />
        </mxCell>
        <mxCell id="ghTpwiykco7RXsNXicl3-16" value="Start" style="text;html=1;strokeColor=none;fillColor=none;align=center;verticalAlign=middle;whiteSpace=wrap;rounded=0;" parent="1" vertex="1">
          <mxGeometry x="109" y="220" width="60" height="30" as="geometry" />
        </mxCell>
        <mxCell id="ghTpwiykco7RXsNXicl3-17" value="" style="edgeStyle=orthogonalEdgeStyle;rounded=0;orthogonalLoop=1;jettySize=auto;html=1;" parent="1" source="ghTpwiykco7RXsNXicl3-18" target="ghTpwiykco7RXsNXicl3-20" edge="1">
          <mxGeometry relative="1" as="geometry" />
        </mxCell>
        <mxCell id="ghTpwiykco7RXsNXicl3-18" value="Open Website" style="whiteSpace=wrap;html=1;" parent="1" vertex="1">
          <mxGeometry x="199" y="240" width="120" height="60" as="geometry" />
        </mxCell>
        <mxCell id="ghTpwiykco7RXsNXicl3-19" value="" style="edgeStyle=orthogonalEdgeStyle;rounded=0;orthogonalLoop=1;jettySize=auto;html=1;" parent="1" source="ghTpwiykco7RXsNXicl3-20" target="ghTpwiykco7RXsNXicl3-22" edge="1">
          <mxGeometry relative="1" as="geometry" />
        </mxCell>
        <mxCell id="ghTpwiykco7RXsNXicl3-20" value="View public timeline" style="whiteSpace=wrap;html=1;" parent="1" vertex="1">
          <mxGeometry x="359" y="240" width="120" height="60" as="geometry" />
        </mxCell>
        <mxCell id="ghTpwiykco7RXsNXicl3-21" value="" style="edgeStyle=orthogonalEdgeStyle;rounded=0;orthogonalLoop=1;jettySize=auto;html=1;" parent="1" source="ghTpwiykco7RXsNXicl3-22" target="ghTpwiykco7RXsNXicl3-23" edge="1">
          <mxGeometry relative="1" as="geometry" />
        </mxCell>
        <mxCell id="ghTpwiykco7RXsNXicl3-22" value="View other users timeline" style="whiteSpace=wrap;html=1;" parent="1" vertex="1">
          <mxGeometry x="519" y="240" width="120" height="60" as="geometry" />
        </mxCell>
        <mxCell id="ghTpwiykco7RXsNXicl3-23" value="" style="ellipse;whiteSpace=wrap;html=1;" parent="1" vertex="1">
          <mxGeometry x="679" y="250" width="40" height="40" as="geometry" />
        </mxCell>
        <mxCell id="ghTpwiykco7RXsNXicl3-24" value="End" style="text;html=1;align=center;verticalAlign=middle;resizable=0;points=[];autosize=1;strokeColor=none;fillColor=none;" parent="1" vertex="1">
          <mxGeometry x="679" y="220" width="40" height="30" as="geometry" />
        </mxCell>
        <mxCell id="ghTpwiykco7RXsNXicl3-25" value="" style="ellipse;whiteSpace=wrap;html=1;aspect=fixed;" parent="1" vertex="1">
          <mxGeometry x="129" y="260" width="20" height="20" as="geometry" />
        </mxCell>
        <mxCell id="ghTpwiykco7RXsNXicl3-26" value="" style="ellipse;whiteSpace=wrap;html=1;aspect=fixed;" parent="1" vertex="1">
          <mxGeometry x="689" y="260" width="20" height="20" as="geometry" />
        </mxCell>
        <mxCell id="ghTpwiykco7RXsNXicl3-27" value="" style="edgeStyle=orthogonalEdgeStyle;rounded=0;orthogonalLoop=1;jettySize=auto;html=1;" parent="1" source="ghTpwiykco7RXsNXicl3-28" target="ghTpwiykco7RXsNXicl3-31" edge="1">
          <mxGeometry relative="1" as="geometry" />
        </mxCell>
        <mxCell id="ghTpwiykco7RXsNXicl3-28" value="" style="ellipse;whiteSpace=wrap;html=1;aspect=fixed;" parent="1" vertex="1">
          <mxGeometry x="39" y="350" width="40" height="40" as="geometry" />
        </mxCell>
        <mxCell id="ghTpwiykco7RXsNXicl3-29" value="Start" style="text;html=1;strokeColor=none;fillColor=none;align=center;verticalAlign=middle;whiteSpace=wrap;rounded=0;" parent="1" vertex="1">
          <mxGeometry x="29" y="320" width="60" height="30" as="geometry" />
        </mxCell>
        <mxCell id="ghTpwiykco7RXsNXicl3-30" value="" style="edgeStyle=orthogonalEdgeStyle;rounded=0;orthogonalLoop=1;jettySize=auto;html=1;" parent="1" source="ghTpwiykco7RXsNXicl3-31" target="ghTpwiykco7RXsNXicl3-33" edge="1">
          <mxGeometry relative="1" as="geometry" />
        </mxCell>
        <mxCell id="ghTpwiykco7RXsNXicl3-31" value="Open Website" style="whiteSpace=wrap;html=1;" parent="1" vertex="1">
          <mxGeometry x="119" y="340" width="120" height="60" as="geometry" />
        </mxCell>
        <mxCell id="ghTpwiykco7RXsNXicl3-43" value="" style="edgeStyle=orthogonalEdgeStyle;rounded=0;orthogonalLoop=1;jettySize=auto;html=1;" parent="1" source="ghTpwiykco7RXsNXicl3-33" target="ghTpwiykco7RXsNXicl3-42" edge="1">
          <mxGeometry relative="1" as="geometry" />
        </mxCell>
        <mxCell id="ghTpwiykco7RXsNXicl3-33" value="View public timeline" style="whiteSpace=wrap;html=1;" parent="1" vertex="1">
          <mxGeometry x="279" y="340" width="120" height="60" as="geometry" />
        </mxCell>
        <mxCell id="ghTpwiykco7RXsNXicl3-34" value="" style="edgeStyle=orthogonalEdgeStyle;rounded=0;orthogonalLoop=1;jettySize=auto;html=1;" parent="1" source="ghTpwiykco7RXsNXicl3-35" target="ghTpwiykco7RXsNXicl3-36" edge="1">
          <mxGeometry relative="1" as="geometry" />
        </mxCell>
        <mxCell id="ghTpwiykco7RXsNXicl3-35" value="View public timeline&lt;br&gt;(Now authenticated)" style="whiteSpace=wrap;html=1;" parent="1" vertex="1">
          <mxGeometry x="599" y="340" width="120" height="60" as="geometry" />
        </mxCell>
        <mxCell id="ghTpwiykco7RXsNXicl3-36" value="" style="ellipse;whiteSpace=wrap;html=1;" parent="1" vertex="1">
          <mxGeometry x="759" y="350" width="40" height="40" as="geometry" />
        </mxCell>
        <mxCell id="ghTpwiykco7RXsNXicl3-37" value="End" style="text;html=1;align=center;verticalAlign=middle;resizable=0;points=[];autosize=1;strokeColor=none;fillColor=none;" parent="1" vertex="1">
          <mxGeometry x="759" y="320" width="40" height="30" as="geometry" />
        </mxCell>
        <mxCell id="ghTpwiykco7RXsNXicl3-38" value="" style="ellipse;whiteSpace=wrap;html=1;aspect=fixed;" parent="1" vertex="1">
          <mxGeometry x="49" y="360" width="20" height="20" as="geometry" />
        </mxCell>
        <mxCell id="ghTpwiykco7RXsNXicl3-39" value="" style="ellipse;whiteSpace=wrap;html=1;aspect=fixed;" parent="1" vertex="1">
          <mxGeometry x="769" y="360" width="20" height="20" as="geometry" />
        </mxCell>
        <mxCell id="ghTpwiykco7RXsNXicl3-44" value="" style="edgeStyle=orthogonalEdgeStyle;rounded=0;orthogonalLoop=1;jettySize=auto;html=1;" parent="1" source="ghTpwiykco7RXsNXicl3-42" target="ghTpwiykco7RXsNXicl3-35" edge="1">
          <mxGeometry relative="1" as="geometry" />
        </mxCell>
        <mxCell id="ghTpwiykco7RXsNXicl3-42" value="Log In" style="whiteSpace=wrap;html=1;" parent="1" vertex="1">
          <mxGeometry x="439" y="340" width="120" height="60" as="geometry" />
        </mxCell>
        <mxCell id="ghTpwiykco7RXsNXicl3-45" value="&lt;font style=&quot;font-size: 17px;&quot;&gt;Typical User journeys of unauthenticated users&lt;/font&gt;" style="text;html=1;strokeColor=none;fillColor=none;align=center;verticalAlign=middle;whiteSpace=wrap;rounded=0;" parent="1" vertex="1">
          <mxGeometry x="280" y="40" width="279" height="80" as="geometry" />
        </mxCell>
        <mxCell id="ghTpwiykco7RXsNXicl3-46" value="" style="endArrow=none;html=1;rounded=0;" parent="1" edge="1">
          <mxGeometry width="50" height="50" relative="1" as="geometry">
            <mxPoint x="20" y="120" as="sourcePoint" />
            <mxPoint x="820" y="120" as="targetPoint" />
          </mxGeometry>
        </mxCell>
        <mxCell id="ghTpwiykco7RXsNXicl3-47" value="" style="endArrow=none;html=1;rounded=0;" parent="1" edge="1">
          <mxGeometry width="50" height="50" relative="1" as="geometry">
            <mxPoint x="20" y="120" as="sourcePoint" />
            <mxPoint x="20" y="410" as="targetPoint" />
          </mxGeometry>
        </mxCell>
        <mxCell id="ghTpwiykco7RXsNXicl3-48" value="" style="endArrow=none;html=1;rounded=0;" parent="1" edge="1">
          <mxGeometry width="50" height="50" relative="1" as="geometry">
            <mxPoint x="20" y="410" as="sourcePoint" />
            <mxPoint x="820" y="410" as="targetPoint" />
          </mxGeometry>
        </mxCell>
        <mxCell id="ghTpwiykco7RXsNXicl3-49" value="" style="endArrow=none;html=1;rounded=0;" parent="1" edge="1">
          <mxGeometry width="50" height="50" relative="1" as="geometry">
            <mxPoint x="820" y="120" as="sourcePoint" />
            <mxPoint x="820" y="410" as="targetPoint" />
          </mxGeometry>
        </mxCell>
        <mxCell id="ghTpwiykco7RXsNXicl3-50" value="" style="endArrow=none;html=1;rounded=0;entryX=0;entryY=0;entryDx=0;entryDy=0;" parent="1" target="ghTpwiykco7RXsNXicl3-45" edge="1">
          <mxGeometry width="50" height="50" relative="1" as="geometry">
            <mxPoint x="280" y="120" as="sourcePoint" />
            <mxPoint x="440" y="310" as="targetPoint" />
          </mxGeometry>
        </mxCell>
        <mxCell id="ghTpwiykco7RXsNXicl3-51" value="" style="endArrow=none;html=1;rounded=0;entryX=1;entryY=0;entryDx=0;entryDy=0;" parent="1" target="ghTpwiykco7RXsNXicl3-45" edge="1">
          <mxGeometry width="50" height="50" relative="1" as="geometry">
            <mxPoint x="280" y="40" as="sourcePoint" />
            <mxPoint x="440" y="310" as="targetPoint" />
          </mxGeometry>
        </mxCell>
        <mxCell id="ghTpwiykco7RXsNXicl3-52" value="" style="endArrow=none;html=1;rounded=0;" parent="1" edge="1">
          <mxGeometry width="50" height="50" relative="1" as="geometry">
            <mxPoint x="559" y="40" as="sourcePoint" />
            <mxPoint x="559" y="120" as="targetPoint" />
          </mxGeometry>
        </mxCell>
        <mxCell id="ghTpwiykco7RXsNXicl3-53" value="" style="edgeStyle=orthogonalEdgeStyle;rounded=0;orthogonalLoop=1;jettySize=auto;html=1;" parent="1" source="ghTpwiykco7RXsNXicl3-54" target="ghTpwiykco7RXsNXicl3-56" edge="1">
          <mxGeometry relative="1" as="geometry" />
        </mxCell>
        <mxCell id="ghTpwiykco7RXsNXicl3-54" value="" style="ellipse;whiteSpace=wrap;html=1;aspect=fixed;" parent="1" vertex="1">
          <mxGeometry x="119" y="550" width="40" height="40" as="geometry" />
        </mxCell>
        <mxCell id="ghTpwiykco7RXsNXicl3-55" value="" style="edgeStyle=orthogonalEdgeStyle;rounded=0;orthogonalLoop=1;jettySize=auto;html=1;" parent="1" source="ghTpwiykco7RXsNXicl3-56" target="ghTpwiykco7RXsNXicl3-58" edge="1">
          <mxGeometry relative="1" as="geometry" />
        </mxCell>
        <mxCell id="ghTpwiykco7RXsNXicl3-56" value="Open Website" style="whiteSpace=wrap;html=1;" parent="1" vertex="1">
          <mxGeometry x="199" y="540" width="120" height="60" as="geometry" />
        </mxCell>
        <mxCell id="ghTpwiykco7RXsNXicl3-57" value="" style="edgeStyle=orthogonalEdgeStyle;rounded=0;orthogonalLoop=1;jettySize=auto;html=1;" parent="1" source="ghTpwiykco7RXsNXicl3-58" target="ghTpwiykco7RXsNXicl3-60" edge="1">
          <mxGeometry relative="1" as="geometry" />
        </mxCell>
        <mxCell id="ghTpwiykco7RXsNXicl3-58" value="View public timeline" style="whiteSpace=wrap;html=1;" parent="1" vertex="1">
          <mxGeometry x="359" y="540" width="120" height="60" as="geometry" />
        </mxCell>
        <mxCell id="ghTpwiykco7RXsNXicl3-59" value="" style="edgeStyle=orthogonalEdgeStyle;rounded=0;orthogonalLoop=1;jettySize=auto;html=1;" parent="1" source="ghTpwiykco7RXsNXicl3-60" target="ghTpwiykco7RXsNXicl3-61" edge="1">
          <mxGeometry relative="1" as="geometry" />
        </mxCell>
        <mxCell id="ghTpwiykco7RXsNXicl3-60" value="Post Cheep" style="whiteSpace=wrap;html=1;" parent="1" vertex="1">
          <mxGeometry x="519" y="540" width="120" height="60" as="geometry" />
        </mxCell>
        <mxCell id="ghTpwiykco7RXsNXicl3-61" value="" style="ellipse;whiteSpace=wrap;html=1;" parent="1" vertex="1">
          <mxGeometry x="679" y="550" width="40" height="40" as="geometry" />
        </mxCell>
        <mxCell id="ghTpwiykco7RXsNXicl3-62" value="" style="ellipse;whiteSpace=wrap;html=1;aspect=fixed;" parent="1" vertex="1">
          <mxGeometry x="129" y="560" width="20" height="20" as="geometry" />
        </mxCell>
        <mxCell id="ghTpwiykco7RXsNXicl3-63" value="" style="ellipse;whiteSpace=wrap;html=1;aspect=fixed;" parent="1" vertex="1">
          <mxGeometry x="689" y="560" width="20" height="20" as="geometry" />
        </mxCell>
        <mxCell id="ghTpwiykco7RXsNXicl3-64" value="Start" style="text;html=1;strokeColor=none;fillColor=none;align=center;verticalAlign=middle;whiteSpace=wrap;rounded=0;" parent="1" vertex="1">
          <mxGeometry x="109" y="520" width="60" height="30" as="geometry" />
        </mxCell>
        <mxCell id="ghTpwiykco7RXsNXicl3-65" value="End" style="text;html=1;align=center;verticalAlign=middle;resizable=0;points=[];autosize=1;strokeColor=none;fillColor=none;" parent="1" vertex="1">
          <mxGeometry x="679" y="520" width="40" height="30" as="geometry" />
        </mxCell>
        <mxCell id="ghTpwiykco7RXsNXicl3-66" value="&lt;font style=&quot;font-size: 17px;&quot;&gt;Typical User journeys of Authenticated users&lt;/font&gt;" style="text;html=1;strokeColor=none;fillColor=none;align=center;verticalAlign=middle;whiteSpace=wrap;rounded=0;" parent="1" vertex="1">
          <mxGeometry x="280" y="440" width="279" height="80" as="geometry" />
        </mxCell>
        <mxCell id="ghTpwiykco7RXsNXicl3-67" value="" style="endArrow=none;html=1;rounded=0;entryX=0;entryY=0;entryDx=0;entryDy=0;" parent="1" target="ghTpwiykco7RXsNXicl3-66" edge="1">
          <mxGeometry width="50" height="50" relative="1" as="geometry">
            <mxPoint x="280" y="520" as="sourcePoint" />
            <mxPoint x="440" y="710" as="targetPoint" />
          </mxGeometry>
        </mxCell>
        <mxCell id="ghTpwiykco7RXsNXicl3-68" value="" style="endArrow=none;html=1;rounded=0;entryX=1;entryY=0;entryDx=0;entryDy=0;" parent="1" target="ghTpwiykco7RXsNXicl3-66" edge="1">
          <mxGeometry width="50" height="50" relative="1" as="geometry">
            <mxPoint x="280" y="440" as="sourcePoint" />
            <mxPoint x="440" y="710" as="targetPoint" />
          </mxGeometry>
        </mxCell>
        <mxCell id="ghTpwiykco7RXsNXicl3-69" value="" style="endArrow=none;html=1;rounded=0;" parent="1" edge="1">
          <mxGeometry width="50" height="50" relative="1" as="geometry">
            <mxPoint x="559" y="440" as="sourcePoint" />
            <mxPoint x="559" y="520" as="targetPoint" />
          </mxGeometry>
        </mxCell>
        <mxCell id="ghTpwiykco7RXsNXicl3-70" value="" style="endArrow=none;html=1;rounded=0;" parent="1" edge="1">
          <mxGeometry width="50" height="50" relative="1" as="geometry">
            <mxPoint x="20" y="520" as="sourcePoint" />
            <mxPoint x="820" y="520" as="targetPoint" />
          </mxGeometry>
        </mxCell>
        <mxCell id="ghTpwiykco7RXsNXicl3-71" value="" style="endArrow=none;html=1;rounded=0;" parent="1" edge="1">
          <mxGeometry width="50" height="50" relative="1" as="geometry">
            <mxPoint x="20" y="520" as="sourcePoint" />
            <mxPoint x="20" y="920" as="targetPoint" />
          </mxGeometry>
        </mxCell>
        <mxCell id="ghTpwiykco7RXsNXicl3-72" value="" style="endArrow=none;html=1;rounded=0;" parent="1" edge="1">
          <mxGeometry width="50" height="50" relative="1" as="geometry">
            <mxPoint x="820" y="520" as="sourcePoint" />
            <mxPoint x="820" y="920" as="targetPoint" />
          </mxGeometry>
        </mxCell>
        <mxCell id="ghTpwiykco7RXsNXicl3-73" value="" style="edgeStyle=orthogonalEdgeStyle;rounded=0;orthogonalLoop=1;jettySize=auto;html=1;" parent="1" source="ghTpwiykco7RXsNXicl3-74" target="ghTpwiykco7RXsNXicl3-76" edge="1">
          <mxGeometry relative="1" as="geometry" />
        </mxCell>
        <mxCell id="ghTpwiykco7RXsNXicl3-74" value="" style="ellipse;whiteSpace=wrap;html=1;aspect=fixed;" parent="1" vertex="1">
          <mxGeometry x="39" y="650" width="40" height="40" as="geometry" />
        </mxCell>
        <mxCell id="ghTpwiykco7RXsNXicl3-75" value="" style="edgeStyle=orthogonalEdgeStyle;rounded=0;orthogonalLoop=1;jettySize=auto;html=1;" parent="1" source="ghTpwiykco7RXsNXicl3-76" target="ghTpwiykco7RXsNXicl3-78" edge="1">
          <mxGeometry relative="1" as="geometry" />
        </mxCell>
        <mxCell id="ghTpwiykco7RXsNXicl3-76" value="Open Website" style="whiteSpace=wrap;html=1;" parent="1" vertex="1">
          <mxGeometry x="119" y="640" width="120" height="60" as="geometry" />
        </mxCell>
        <mxCell id="ghTpwiykco7RXsNXicl3-77" value="" style="edgeStyle=orthogonalEdgeStyle;rounded=0;orthogonalLoop=1;jettySize=auto;html=1;" parent="1" source="ghTpwiykco7RXsNXicl3-78" target="ghTpwiykco7RXsNXicl3-80" edge="1">
          <mxGeometry relative="1" as="geometry" />
        </mxCell>
        <mxCell id="ghTpwiykco7RXsNXicl3-78" value="View public timeline" style="whiteSpace=wrap;html=1;" parent="1" vertex="1">
          <mxGeometry x="279" y="640" width="120" height="60" as="geometry" />
        </mxCell>
        <mxCell id="ghTpwiykco7RXsNXicl3-90" value="" style="edgeStyle=orthogonalEdgeStyle;rounded=0;orthogonalLoop=1;jettySize=auto;html=1;" parent="1" source="ghTpwiykco7RXsNXicl3-80" target="ghTpwiykco7RXsNXicl3-88" edge="1">
          <mxGeometry relative="1" as="geometry" />
        </mxCell>
        <mxCell id="ghTpwiykco7RXsNXicl3-80" value="React to Cheep" style="whiteSpace=wrap;html=1;" parent="1" vertex="1">
          <mxGeometry x="439" y="640" width="120" height="60" as="geometry" />
        </mxCell>
        <mxCell id="ghTpwiykco7RXsNXicl3-81" value="" style="ellipse;whiteSpace=wrap;html=1;" parent="1" vertex="1">
          <mxGeometry x="759.5" y="650" width="40" height="40" as="geometry" />
        </mxCell>
        <mxCell id="ghTpwiykco7RXsNXicl3-82" value="" style="ellipse;whiteSpace=wrap;html=1;aspect=fixed;" parent="1" vertex="1">
          <mxGeometry x="49" y="660" width="20" height="20" as="geometry" />
        </mxCell>
        <mxCell id="ghTpwiykco7RXsNXicl3-83" value="" style="ellipse;whiteSpace=wrap;html=1;aspect=fixed;" parent="1" vertex="1">
          <mxGeometry x="769.5" y="660" width="20" height="20" as="geometry" />
        </mxCell>
        <mxCell id="ghTpwiykco7RXsNXicl3-84" value="Start" style="text;html=1;strokeColor=none;fillColor=none;align=center;verticalAlign=middle;whiteSpace=wrap;rounded=0;" parent="1" vertex="1">
          <mxGeometry x="28.5" y="620" width="60" height="30" as="geometry" />
        </mxCell>
        <mxCell id="ghTpwiykco7RXsNXicl3-85" value="End" style="text;html=1;align=center;verticalAlign=middle;resizable=0;points=[];autosize=1;strokeColor=none;fillColor=none;" parent="1" vertex="1">
          <mxGeometry x="759" y="620" width="40" height="30" as="geometry" />
        </mxCell>
        <mxCell id="ghTpwiykco7RXsNXicl3-91" value="" style="edgeStyle=orthogonalEdgeStyle;rounded=0;orthogonalLoop=1;jettySize=auto;html=1;entryX=0;entryY=0.5;entryDx=0;entryDy=0;" parent="1" source="ghTpwiykco7RXsNXicl3-88" target="ghTpwiykco7RXsNXicl3-81" edge="1">
          <mxGeometry relative="1" as="geometry" />
        </mxCell>
        <mxCell id="ghTpwiykco7RXsNXicl3-88" value="Follow other user" style="rounded=0;whiteSpace=wrap;html=1;" parent="1" vertex="1">
          <mxGeometry x="599" y="640" width="120" height="60" as="geometry" />
        </mxCell>
        <mxCell id="ghTpwiykco7RXsNXicl3-92" value="" style="edgeStyle=orthogonalEdgeStyle;rounded=0;orthogonalLoop=1;jettySize=auto;html=1;" parent="1" source="ghTpwiykco7RXsNXicl3-93" target="ghTpwiykco7RXsNXicl3-95" edge="1">
          <mxGeometry relative="1" as="geometry" />
        </mxCell>
        <mxCell id="ghTpwiykco7RXsNXicl3-93" value="" style="ellipse;whiteSpace=wrap;html=1;aspect=fixed;" parent="1" vertex="1">
          <mxGeometry x="39.75" y="850" width="40" height="40" as="geometry" />
        </mxCell>
        <mxCell id="ghTpwiykco7RXsNXicl3-94" value="" style="edgeStyle=orthogonalEdgeStyle;rounded=0;orthogonalLoop=1;jettySize=auto;html=1;" parent="1" source="ghTpwiykco7RXsNXicl3-95" target="ghTpwiykco7RXsNXicl3-97" edge="1">
          <mxGeometry relative="1" as="geometry" />
        </mxCell>
        <mxCell id="ghTpwiykco7RXsNXicl3-95" value="Open Website" style="whiteSpace=wrap;html=1;" parent="1" vertex="1">
          <mxGeometry x="119.75" y="840" width="120" height="60" as="geometry" />
        </mxCell>
        <mxCell id="ghTpwiykco7RXsNXicl3-96" value="" style="edgeStyle=orthogonalEdgeStyle;rounded=0;orthogonalLoop=1;jettySize=auto;html=1;" parent="1" source="ghTpwiykco7RXsNXicl3-97" target="ghTpwiykco7RXsNXicl3-99" edge="1">
          <mxGeometry relative="1" as="geometry" />
        </mxCell>
        <mxCell id="ghTpwiykco7RXsNXicl3-97" value="View public timeline" style="whiteSpace=wrap;html=1;" parent="1" vertex="1">
          <mxGeometry x="279.75" y="840" width="120" height="60" as="geometry" />
        </mxCell>
        <mxCell id="ghTpwiykco7RXsNXicl3-98" value="" style="edgeStyle=orthogonalEdgeStyle;rounded=0;orthogonalLoop=1;jettySize=auto;html=1;" parent="1" source="ghTpwiykco7RXsNXicl3-99" target="ghTpwiykco7RXsNXicl3-106" edge="1">
          <mxGeometry relative="1" as="geometry" />
        </mxCell>
        <mxCell id="ghTpwiykco7RXsNXicl3-99" value="View &#39;About Me&#39; page" style="whiteSpace=wrap;html=1;" parent="1" vertex="1">
          <mxGeometry x="439.75" y="840" width="120" height="60" as="geometry" />
        </mxCell>
        <mxCell id="ghTpwiykco7RXsNXicl3-100" value="" style="ellipse;whiteSpace=wrap;html=1;" parent="1" vertex="1">
          <mxGeometry x="760.25" y="850" width="40" height="40" as="geometry" />
        </mxCell>
        <mxCell id="ghTpwiykco7RXsNXicl3-101" value="" style="ellipse;whiteSpace=wrap;html=1;aspect=fixed;" parent="1" vertex="1">
          <mxGeometry x="49.75" y="860" width="20" height="20" as="geometry" />
        </mxCell>
        <mxCell id="ghTpwiykco7RXsNXicl3-102" value="" style="ellipse;whiteSpace=wrap;html=1;aspect=fixed;" parent="1" vertex="1">
          <mxGeometry x="770.25" y="860" width="20" height="20" as="geometry" />
        </mxCell>
        <mxCell id="ghTpwiykco7RXsNXicl3-103" value="Start" style="text;html=1;strokeColor=none;fillColor=none;align=center;verticalAlign=middle;whiteSpace=wrap;rounded=0;" parent="1" vertex="1">
          <mxGeometry x="29" y="820" width="60" height="30" as="geometry" />
        </mxCell>
        <mxCell id="ghTpwiykco7RXsNXicl3-104" value="End" style="text;html=1;align=center;verticalAlign=middle;resizable=0;points=[];autosize=1;strokeColor=none;fillColor=none;" parent="1" vertex="1">
          <mxGeometry x="759.75" y="820" width="40" height="30" as="geometry" />
        </mxCell>
        <mxCell id="ghTpwiykco7RXsNXicl3-105" value="" style="edgeStyle=orthogonalEdgeStyle;rounded=0;orthogonalLoop=1;jettySize=auto;html=1;entryX=0;entryY=0.5;entryDx=0;entryDy=0;" parent="1" source="ghTpwiykco7RXsNXicl3-106" target="ghTpwiykco7RXsNXicl3-100" edge="1">
          <mxGeometry relative="1" as="geometry" />
        </mxCell>
        <mxCell id="ghTpwiykco7RXsNXicl3-106" value="Press &#39;Forget Me&#39;&lt;br&gt;(Deleting profile)" style="rounded=0;whiteSpace=wrap;html=1;" parent="1" vertex="1">
          <mxGeometry x="599.75" y="840" width="120" height="60" as="geometry" />
        </mxCell>
        <mxCell id="ghTpwiykco7RXsNXicl3-107" value="" style="edgeStyle=orthogonalEdgeStyle;rounded=0;orthogonalLoop=1;jettySize=auto;html=1;" parent="1" source="ghTpwiykco7RXsNXicl3-108" target="ghTpwiykco7RXsNXicl3-110" edge="1">
          <mxGeometry relative="1" as="geometry" />
        </mxCell>
        <mxCell id="ghTpwiykco7RXsNXicl3-108" value="" style="ellipse;whiteSpace=wrap;html=1;aspect=fixed;" parent="1" vertex="1">
          <mxGeometry x="39" y="750" width="40" height="40" as="geometry" />
        </mxCell>
        <mxCell id="ghTpwiykco7RXsNXicl3-109" value="" style="edgeStyle=orthogonalEdgeStyle;rounded=0;orthogonalLoop=1;jettySize=auto;html=1;" parent="1" source="ghTpwiykco7RXsNXicl3-110" target="ghTpwiykco7RXsNXicl3-112" edge="1">
          <mxGeometry relative="1" as="geometry" />
        </mxCell>
        <mxCell id="ghTpwiykco7RXsNXicl3-110" value="Open Website" style="whiteSpace=wrap;html=1;" parent="1" vertex="1">
          <mxGeometry x="100" y="740" width="110" height="60" as="geometry" />
        </mxCell>
        <mxCell id="ghTpwiykco7RXsNXicl3-111" value="" style="edgeStyle=orthogonalEdgeStyle;rounded=0;orthogonalLoop=1;jettySize=auto;html=1;" parent="1" source="ghTpwiykco7RXsNXicl3-112" target="ghTpwiykco7RXsNXicl3-114" edge="1">
          <mxGeometry relative="1" as="geometry" />
        </mxCell>
        <mxCell id="ghTpwiykco7RXsNXicl3-112" value="Post Cheep" style="whiteSpace=wrap;html=1;" parent="1" vertex="1">
          <mxGeometry x="230" y="740" width="110.25" height="60" as="geometry" />
        </mxCell>
        <mxCell id="ghTpwiykco7RXsNXicl3-113" value="" style="edgeStyle=orthogonalEdgeStyle;rounded=0;orthogonalLoop=1;jettySize=auto;html=1;" parent="1" source="ghTpwiykco7RXsNXicl3-114" target="ghTpwiykco7RXsNXicl3-121" edge="1">
          <mxGeometry relative="1" as="geometry" />
        </mxCell>
        <mxCell id="ghTpwiykco7RXsNXicl3-114" value="React to Cheep" style="whiteSpace=wrap;html=1;" parent="1" vertex="1">
          <mxGeometry x="359" y="740" width="110" height="60" as="geometry" />
        </mxCell>
        <mxCell id="ghTpwiykco7RXsNXicl3-115" value="" style="ellipse;whiteSpace=wrap;html=1;" parent="1" vertex="1">
          <mxGeometry x="759.5" y="750" width="40" height="40" as="geometry" />
        </mxCell>
        <mxCell id="ghTpwiykco7RXsNXicl3-116" value="" style="ellipse;whiteSpace=wrap;html=1;aspect=fixed;" parent="1" vertex="1">
          <mxGeometry x="49" y="760" width="20" height="20" as="geometry" />
        </mxCell>
        <mxCell id="ghTpwiykco7RXsNXicl3-117" value="" style="ellipse;whiteSpace=wrap;html=1;aspect=fixed;" parent="1" vertex="1">
          <mxGeometry x="769.5" y="760" width="20" height="20" as="geometry" />
        </mxCell>
        <mxCell id="ghTpwiykco7RXsNXicl3-118" value="Start" style="text;html=1;strokeColor=none;fillColor=none;align=center;verticalAlign=middle;whiteSpace=wrap;rounded=0;" parent="1" vertex="1">
          <mxGeometry x="28.5" y="720" width="60" height="30" as="geometry" />
        </mxCell>
        <mxCell id="ghTpwiykco7RXsNXicl3-119" value="End" style="text;html=1;align=center;verticalAlign=middle;resizable=0;points=[];autosize=1;strokeColor=none;fillColor=none;" parent="1" vertex="1">
          <mxGeometry x="759" y="720" width="40" height="30" as="geometry" />
        </mxCell>
        <mxCell id="ghTpwiykco7RXsNXicl3-123" value="" style="edgeStyle=orthogonalEdgeStyle;rounded=0;orthogonalLoop=1;jettySize=auto;html=1;" parent="1" source="ghTpwiykco7RXsNXicl3-121" target="ghTpwiykco7RXsNXicl3-122" edge="1">
          <mxGeometry relative="1" as="geometry" />
        </mxCell>
        <mxCell id="ghTpwiykco7RXsNXicl3-121" value="Follow other user" style="rounded=0;whiteSpace=wrap;html=1;" parent="1" vertex="1">
          <mxGeometry x="488.75" y="740" width="111" height="60" as="geometry" />
        </mxCell>
        <mxCell id="ghTpwiykco7RXsNXicl3-124" value="" style="edgeStyle=orthogonalEdgeStyle;rounded=0;orthogonalLoop=1;jettySize=auto;html=1;entryX=0;entryY=0.5;entryDx=0;entryDy=0;" parent="1" source="ghTpwiykco7RXsNXicl3-122" target="ghTpwiykco7RXsNXicl3-115" edge="1">
          <mxGeometry relative="1" as="geometry" />
        </mxCell>
        <mxCell id="ghTpwiykco7RXsNXicl3-122" value="Follow other user" style="rounded=0;whiteSpace=wrap;html=1;" parent="1" vertex="1">
          <mxGeometry x="620" y="740" width="109.75" height="60" as="geometry" />
        </mxCell>
        <mxCell id="ghTpwiykco7RXsNXicl3-125" value="" style="endArrow=none;html=1;rounded=0;" parent="1" edge="1">
          <mxGeometry width="50" height="50" relative="1" as="geometry">
            <mxPoint x="20" y="920" as="sourcePoint" />
            <mxPoint x="820" y="920" as="targetPoint" />
          </mxGeometry>
        </mxCell>
      </root>
    </mxGraphModel>
  </diagram>
</mxfile>
